PathFileType	4	(X/Y/Z)	F:\biomechanics\vid_Sports2D\vid_Sports2D_px_person00.trc
DataRate	CameraRate	NumFrames	NumMarkers	Units	OrigDataRate	OrigDataStartFrame	OrigNumFrames
250.0	250.0	9	22	m	250.0	505	808
Frame#	Time	Hip			RHip			RKnee			RAnkle			RBigToe			RSmallToe			RHeel			LHip			LKnee			LAnkle			LBigToe			LSmallToe			LHeel			Neck			Head			Nose			RShoulder			RElbow			RWrist			LShoulder			LElbow			LWrist			
		X1	Y1	Z1	X2	Y2	Z2	X3	Y3	Z3	X4	Y4	Z4	X5	Y5	Z5	X6	Y6	Z6	X7	Y7	Z7	X8	Y8	Z8	X9	Y9	Z9	X10	Y10	Z10	X11	Y11	Z11	X12	Y12	Z12	X13	Y13	Z13	X14	Y14	Z14	X15	Y15	Z15	X16	Y16	Z16	X17	Y17	Z17	X18	Y18	Z18	X19	Y19	Z19	X20	Y20	Z20	X21	Y21	Z21	X22	Y22	Z22
505	2.022503097893433	283.6105249281664	233.49237792943995	0.0	290.03843004969485	232.85972864871695	0.0	307.2207408941145	311.10853306620163	0.0	281.0393017669729	385.45781628278326	0.0	291.57316361801423	412.5486580910931	0.0	287.3476644150356	413.5155738488519	0.0	268.06062160127425	388.06752625687017	0.0	279.05272970068125	232.65065349048075	0.0	293.14664817000687	308.95359188691634	0.0	277.13109763494697	377.1018301490796	0.0	300.3899428136816	395.82475650930525	0.0	297.0513156144705	393.21953157431545	0.0	261.79611177010906	380.3371611326623	0.0	271.2439980606905	137.64822167711722	0.0	254.14915137505517	94.92288182343262	0.0	278.3404641626711	110.69393058668797	0.0	285.40419656877106	146.13237381480917	0.0	326.4678010362692	110.41263916032031	0.0	308.72997536924873	81.96393897351291	0.0	265.73046515657643	146.7502870562001	0.0	299.9887061084632	122.69167586931647	0.0	294.2950014383892	88.76638380707045	0.0
506	2.0265080545229246	283.9707470026148	233.1601649024235	0.0	290.26380202961315	232.53355857907724	0.0	307.39810230102324	310.84437433070724	0.0	281.2105565097134	385.1319624773489	0.0	291.6625227735485	412.37185262230975	0.0	287.4322673354005	413.27192309378296	0.0	268.21379198201913	387.7056197407767	0.0	279.50514733532225	232.30878072974613	0.0	293.62056612960106	308.7047606223188	0.0	277.25817343863525	376.8820447944252	0.0	300.2724091408678	395.79211486624627	0.0	296.9789079059979	393.0519864521711	0.0	261.8293579175536	380.02216219902795	0.0	271.3416120485501	137.21830520869526	0.0	254.08852763591534	94.61225200026873	0.0	278.3638410152674	110.21830885977515	0.0	285.42989004969183	145.77204369936246	0.0	326.43769522942495	109.85435988153651	0.0	308.8963968125885	80.93911656474691	0.0	266.1371080138368	146.34523124738246	0.0	300.5209850101127	121.95311501925607	0.0	294.74024598971425	87.6959133271692	0.0
507	2.030513011152417	284.33902370392127	232.82062509239026	0.0	290.48629440702285	232.20898818641396	0.0	307.5725722748447	310.58123432146056	0.0	281.39338802614407	384.8118038494238	0.0	291.7826336305687	412.2171050017966	0.0	287.53978316155343	413.0447362184891	0.0	268.3771722124485	387.35894513837206	0.0	279.9713723183673	231.96910585486725	0.0	294.0931572259334	308.46067462431245	0.0	277.39530349812156	376.67094449378357	0.0	300.18514109348575	395.7936081190349	0.0	296.9270450051746	392.90268151297744	0.0	261.87110265804876	379.7224617053714	0.0	271.439046796111	136.7966246392976	0.0	254.01248842096044	94.30659709739933	0.0	278.37574443435904	109.74323854941547	0.0	285.451689186776	145.41903505966246	0.0	326.41403304233387	109.29649066758378	0.0	309.06501028863664	79.90192252496047	0.0	266.54835062359007	145.9429224524181	0.0	301.059794746492	121.20229644852904	0.0	295.1933011295713	86.60681538596434	0.0
508	2.0345179677819085	284.7137357702409	232.47485014924533	0.0	290.70627764052034	231.88715786106133	0.0	307.74397769126136	310.31985663893175	0.0	281.5877832734268	384.4981180237002	0.0	291.93358921961305	412.08416573352366	0.0	287.6703266657102	412.83467837391373	0.0	268.5500765822615	387.02891077414586	0.0	280.44855889485535	231.63238699974983	0.0	294.5617429438421	308.2207525738592	0.0	277.54133034219154	376.4678001202156	0.0	300.1303805191671	395.8249168631653	0.0	296.8967985584685	392.76902545471785	0.0	261.9211365518085	379.43788891930507	0.0	271.53697491076167	136.38399267993623	0.0	253.9241500966062	94.00652664526679	0.0	278.3769212443324	109.26936520224139	0.0	285.47042835430796	145.0740792747831	0.0	326.3972544928504	108.73896084325754	0.0	309.23583792570656	78.85282294651124	0.0	266.962016520213	145.54319325406794	0.0	301.6012499436874	120.43976003673366	0.0	295.651412222674	85.50004888220234	0.0
509	2.0385229244114007	285.0932631063333	232.12402954792174	0.0	290.9242563019741	231.5690945743985	0.0	307.9121287078703	310.06112283314155	0.0	281.7935991606413	384.19171243823683	0.0	292.1155755628564	411.9720517838744	0.0	287.8241275986269	412.64183249142894	0.0	268.7318873006634	386.71664187434146	0.0	280.9336573817866	231.29916740678493	0.0	295.0232878629494	307.9845530197921	0.0	277.69496650618606	376.27181815190823	0.0	300.1100626849244	395.8809892662038	0.0	296.8891196708934	392.64792027404684	0.0	261.9790339081421	379.1681966602602	0.0	271.63608016478474	135.9811478905078	0.0	253.82658276234199	93.71317448276149	0.0	278.3682723723571	108.79764919169558	0.0	285.4870557899306	144.7380064974313	0.0	326.3873643561523	108.18169959521728	0.0	309.4089176991645	77.79217639588337	0.0	267.3759427106274	145.145967345064	0.0	302.1412042772121	119.66671806362912	0.0	296.11198217791036	84.37681924551586	0.0
510	2.0425278810408924	285.4759727758352	231.76957581135738	0.0	291.1408194739517	231.25578950600783	0.0	308.07688251449497	309.8061132562655	0.0	282.0104995192419	383.8935770774182	0.0	292.3289177070625	411.87897244185393	0.0	288.0015466982242	412.4657771553035	0.0	268.922067464658	386.4230855773766	0.0	281.42333884006797	230.96991229639912	0.0	295.47439320451696	307.7518128720009	0.0	277.8549597497037	376.08222256661867	0.0	300.1258957749854	395.95573056666285	0.0	296.9049682166844	392.5358285844828	0.0	262.0441997559409	378.91318615061977	0.0	271.7370245165013	135.58873023086264	0.0	253.72288675332695	93.42805002340518	0.0	278.35087350096524	108.32954252557535	0.0	285.502676480963	144.41179212595515	0.0	326.38391386808956	107.62471162776845	0.0	309.58441378220385	76.72028169198613	0.0	267.787952709846	144.75136920356627	0.0	302.6749889884945	118.88489035665265	0.0	296.5725419663696	83.23853171699491	0.0
511	2.0465328376703846	285.86005027499004	231.41317788609683	0.0	291.3565320298732	230.9480994381394	0.0	308.23820355336835	309.55600118222037	0.0	282.2380096117354	383.60482104005933	0.0	292.57396732886065	411.8022329213594	0.0	288.20303133960675	412.3055904018608	0.0	269.1202813628481	386.14916490271014	0.0	281.9137646410612	230.64503149390103	0.0	295.9110997774611	307.52243207284073	0.0	278.019821708204	375.89833424558253	0.0	300.1791914007467	396.04181135159655	0.0	296.9451966321008	392.42860146539806	0.0	262.11586272351207	378.67282871338546	0.0	271.84037435871096	135.2073438917115	0.0	253.6162504714485	93.15278364943511	0.0	278.3259488966895	107.86698126024396	0.0	285.5185410229879	144.09651123308197	0.0	326.3860425859984	107.06802267513775	0.0	309.7628002575512	75.637390680895	0.0	268.1956300520211	144.359811581059	0.0	303.1970884418545	118.09666338627956	0.0	297.03055693185354	82.0868566166912	0.0
512	2.0505377942998764	286.2433660328754	231.05681495893134	0.0	291.57180194594247	230.64653903131025	0.0	308.3961241443513	309.31185103741	0.0	282.47556826730784	383.3265870898699	0.0	292.8510285355248	411.73837753191754	0.0	288.4291121882195	412.1598255782288	0.0	269.32649850071215	385.89589586282267	0.0	282.40035961041514	230.32476334369753	0.0	296.32891586622196	307.2963825879592	0.0	278.18750164212935	375.719586293302	0.0	300.2706538941381	396.1307474343824	0.0	297.0103015893449	392.32124550118056	0.0	262.193074540623	378.44739635705093	0.0	271.9465535025876	134.83758607730238	0.0	253.5098836243789	92.88886986585987	0.0	278.2948269621758	107.41221534399267	0.0	285.53603439669473	143.79328529799716	0.0	326.3924990033697	106.51160900226243	0.0	309.94501082094644	74.54381580743136	0.0	268.59606072372213	143.97193018893864	0.0	303.7010647445068	117.30519301274103	0.0	297.4833065939278	80.92390400365892	0.0
513	2.054542750929368	286.623561598183	230.7027471651386	0.0	291.786764312687	230.3512133013587	0.0	308.55065162493	309.07452576013156	0.0	282.72244106342083	383.0601294200814	0.0	293.1603261483493	411.683785820026	0.0	288.68034074552463	412.02662552651776	0.0	269.540846893413	385.664404773621	0.0	282.87812889070983	230.00920926044654	0.0	296.7234993368733	307.0736411900675	0.0	278.3556616812701	375.54541592391706	0.0	300.4003618078057	396.21335717758234	0.0	297.1004423882314	392.2082169762734	0.0	262.2749784460356	378.2376139646241	0.0	272.05585270262407	134.4798897011812	0.0	253.40679587953863	92.63752054532794	0.0	278.25881690354646	106.9675717318807	0.0	285.5566790176584	143.5032930088782	0.0	326.4016883650706	105.95549641838743	0.0	310.13242725807373	73.44016621713598	0.0	268.98593188644327	143.58822460615556	0.0	304.1800732928073	116.5138052870916	0.0	297.92809312497576	79.75219052401468	0.0
